<svg width="128" height="128" viewBox="0 0 128 128" fill="none" xmlns="http://www.w3.org/2000/svg">
<path d="M0 64C0 28.6538 28.6538 0 64 0C99.3462 0 128 28.6538 128 64C128 99.3462 99.3462 128 64 128C28.6538 128 0 99.3462 0 64Z" fill="#202020"/>
<path d="M50.4 100H41V54C41 46.1333 43.1 40 47.3 35.6C51.5667 31.2 57.2 29 64.2 29C71.6667 29 77.4333 31.1333 81.5 35.4C85.6333 39.6667 87.7 45.1 87.7 51.7C87.7 55.8333 86.9333 59.4333 85.4 62.5C83.9333 65.5667 81.9333 67.9333 79.4 69.6C76.8667 71.2667 74.1667 72.5 71.3 73.3C68.4333 74.1 65.4333 74.5 62.3 74.5H54.8V65.7H63.4C67.8667 65.7 71.3667 64.3667 73.9 61.7C76.5 58.9667 77.8 55.5667 77.8 51.5C77.8 47.5 76.6 44.2333 74.2 41.7C71.8667 39.1 68.5 37.8 64.1 37.8C59.8333 37.8 56.4667 39.2667 54 42.2C51.6 45.0667 50.4 48.8667 50.4 53.6V100Z" fill="white"/>
</svg>
